<svg xmlns="http://www.w3.org/2000/svg"  viewBox="0 0 100 100" width="100px" height="100px">
  <path fill="#1DA1F2" d="M0.01,75.001v-4h47.416	c2.524,0,4.575-2.048,4.575-4.573c0-0.963-0.297-1.852-0.801-2.584l-24.833-35.7c-0.92-1.323,0.031-3.143,1.643-3.143h12	c0.653,0,1.267,0.321,1.641,0.859l28.487,40.943c1.777,2.543,4.723,4.199,8.05,4.199h21.82v4H53.614	c0.787-0.568,1.491-1.241,2.093-2h15.32c-1.648-1-3.069-2.335-4.171-3.909L38.964,29.001h-7.128l22.653,32.567	c0.955,1.385,1.512,3.061,1.512,4.86c0,4.735-3.841,8.573-8.574,8.573H0.01z M29.857,69.001l12.548-14.297l2.353,3.383L35.18,69.001	H29.857z M56.89,44.262l-2.355-3.384L68.47,25.001h5.321L56.89,44.262z"/>
</svg>
