<?xml version="1.0" standalone="no"?>
<!DOCTYPE svg PUBLIC "-//W3C//DTD SVG 20010904//EN"
 "http://www.w3.org/TR/2001/REC-SVG-20010904/DTD/svg10.dtd">
<svg version="1.0" xmlns="http://www.w3.org/2000/svg"
 width="2048.000000pt" height="2048.000000pt" viewBox="0 0 2048.000000 2048.000000"
 preserveAspectRatio="xMidYMid meet">

<g transform="translate(0.000000,2048.000000) scale(0.100000,-0.100000)"
fill="#000000" stroke="none">
<path d="M12510 17467 c0 -29 51 -108 93 -143 43 -36 68 -46 257 -100 265 -75
279 -79 286 -71 21 21 -83 156 -156 202 -54 34 -392 135 -452 135 -23 0 -28
-5 -28 -23z"/>
<path d="M13200 17266 c0 -22 81 -126 133 -173 26 -22 96 -65 155 -93 92 -45
264 -151 312 -192 15 -12 133 -163 228 -290 23 -32 45 -58 47 -58 10 0 -202
289 -278 380 -80 95 -228 256 -212 229 5 -8 -6 -2 -24 14 -57 48 -212 134
-328 184 -28 11 -33 11 -33 -1z"/>
<path d="M11650 16729 c-81 -33 -91 -128 -23 -210 42 -49 87 -65 233 -84 664
-83 1098 -166 1540 -297 145 -43 175 -46 190 -18 33 62 -46 221 -131 266 -164
84 -965 255 -1514 323 -238 29 -268 31 -295 20z"/>
<path d="M13708 16265 c-16 -35 22 -145 74 -214 34 -45 54 -60 124 -92 95 -44
120 -48 129 -19 15 47 -50 191 -113 253 -31 31 -164 97 -194 97 -4 0 -14 -11
-20 -25z"/>
<path d="M14070 16085 c0 -37 44 -147 84 -208 27 -44 56 -69 137 -123 56 -38
133 -99 171 -136 37 -37 68 -61 68 -54 0 26 -41 133 -86 223 -37 76 -59 105
-116 158 -82 76 -211 165 -239 165 -14 0 -19 -7 -19 -25z"/>
<path d="M11275 15941 c30 -8 30 -8 5 -13 -14 -3 -1 -3 28 -1 l52 4 0 -45 0
-46 36 0 c23 0 41 6 49 17 12 17 15 17 49 0 20 -9 36 -12 36 -6 0 6 6 6 19 -1
11 -5 23 -10 28 -10 4 0 -20 16 -55 36 -34 19 -67 32 -74 28 -7 -4 -8 -3 -4 4
7 11 -14 17 -54 14 -8 0 -17 3 -20 8 -3 4 -32 10 -65 14 -38 3 -49 2 -30 -3z
m240 -73 c7 -8 5 -9 -10 -3 -11 5 -30 9 -42 9 -13 1 -23 5 -23 10 0 11 62 -1
75 -16z"/>
<path d="M11165 15930 c-14 -5 -6 -8 28 -8 27 0 47 1 45 2 -10 9 -56 13 -73 6z"/>
<path d="M11080 15902 c-51 -24 -167 -118 -175 -142 -3 -11 -10 -20 -14 -20
-3 0 -14 -12 -22 -27 -14 -24 -14 -32 -3 -58 l14 -30 -3 30 c-1 20 2 29 11 27
16 -3 74 56 67 69 -4 5 -1 9 5 9 7 0 10 5 8 11 -5 16 -22 7 -25 -14 -4 -22
-44 -58 -56 -50 -5 3 -1 10 8 16 8 7 25 28 38 47 12 19 28 35 36 35 8 0 19 9
25 20 6 11 12 22 13 24 2 2 9 -2 18 -9 12 -10 15 -10 15 0 0 7 7 10 16 6 10
-4 13 -2 8 6 -5 8 -2 9 9 5 40 -16 50 -17 27 -3 -14 8 -33 13 -42 10 -10 -3
-18 -3 -18 0 0 9 60 37 69 32 4 -3 8 1 8 9 0 8 -1 15 -1 14 -1 0 -17 -8 -36
-17z m-209 -215 c-10 -9 -11 -8 -5 6 3 10 9 15 12 12 3 -3 0 -11 -7 -18z"/>
<path d="M11090 15876 c0 -2 7 -6 15 -10 8 -3 15 -1 15 4 0 6 -7 10 -15 10 -8
0 -15 -2 -15 -4z"/>
<path d="M11458 15843 c7 -3 16 -2 19 1 4 3 -2 6 -13 5 -11 0 -14 -3 -6 -6z"/>
<path d="M11010 15810 c0 -5 5 -10 10 -10 6 0 10 -10 10 -22 0 -12 3 -19 6
-15 9 9 -5 57 -16 57 -6 0 -10 -4 -10 -10z"/>
<path d="M11604 15780 c0 -21 4 -36 8 -34 4 3 8 0 8 -5 0 -6 -4 -11 -10 -11
-5 0 -10 -11 -10 -25 0 -22 4 -25 39 -25 25 0 41 5 45 15 6 17 26 20 26 4 0
-5 -5 -7 -10 -4 -12 7 -4 -37 12 -67 10 -20 28 -24 28 -7 0 6 7 3 16 -5 24
-25 35 -19 12 6 -7 7 -21 30 -32 50 -25 49 -88 117 -93 101 -3 -7 -12 -13 -21
-13 -15 1 -15 2 1 11 22 13 22 26 -1 38 -16 9 -18 5 -18 -29z m131 -127 c3
-13 2 -23 -3 -23 -5 0 -12 14 -14 30 -5 33 6 28 17 -7z"/>
<path d="M12490 15789 c-88 -7 -140 -31 -203 -91 -94 -90 -137 -208 -137 -376
0 -254 120 -496 306 -617 85 -56 165 -78 260 -72 102 6 174 38 238 107 46 49
106 158 106 193 0 10 6 20 13 23 14 5 288 -58 422 -97 38 -11 166 -52 282 -90
231 -76 243 -77 265 -21 5 15 10 57 11 93 0 82 -34 164 -85 202 -62 47 -619
217 -889 271 -21 5 -30 17 -47 64 -46 125 -142 253 -245 325 -105 74 -181 96
-297 86z m212 -375 c86 -60 131 -210 94 -308 -59 -153 -236 -135 -320 32 -50
101 -41 205 25 274 38 40 39 40 99 36 46 -3 70 -11 102 -34z"/>
<path d="M10980 15786 c0 -2 7 -9 15 -16 12 -10 15 -10 15 4 0 9 -7 16 -15 16
-8 0 -15 -2 -15 -4z"/>
<path d="M10940 15695 c-8 -9 -8 -15 -2 -15 12 0 26 19 19 26 -2 2 -10 -2 -17
-11z"/>
<path d="M11252 15673 c9 -2 15 -10 12 -18 -4 -10 6 -16 33 -20 66 -11 70 -14
13 -11 -40 3 -60 0 -73 -12 -10 -9 -37 -16 -62 -16 -25 -1 -45 -2 -45 -3 0 -1
7 -9 16 -17 8 -9 12 -21 8 -27 -4 -8 -11 -3 -20 12 -16 29 -17 24 -5 -17 8
-29 7 -31 -18 -27 -20 4 -23 2 -11 -6 13 -9 13 -11 -2 -11 -10 0 -18 5 -18 10
0 6 -9 10 -20 10 -16 0 -20 -7 -20 -36 0 -19 7 -42 15 -50 8 -9 15 -24 15 -34
0 -10 -7 -25 -15 -34 -8 -8 -15 -31 -15 -50 0 -35 1 -36 43 -37 23 -1 45 -1
50 0 11 2 9 -17 -3 -24 -5 -3 -10 -11 -10 -17 0 -7 4 -7 14 1 10 9 16 8 26 -4
7 -9 10 -18 6 -22 -3 -3 -6 -1 -6 5 0 7 -5 12 -11 12 -6 0 -9 -6 -6 -12 2 -7
15 -13 28 -13 15 0 28 -8 34 -22 6 -15 15 -21 26 -18 10 3 20 1 24 -5 3 -5 16
-10 27 -10 29 0 14 -13 -19 -16 -18 -2 -23 0 -15 5 9 5 3 8 -15 7 -17 -1 -30
-6 -30 -11 0 -6 47 -10 119 -11 65 0 113 3 106 8 -8 5 -1 8 19 8 17 0 35 5 38
10 9 14 -7 13 -61 -6 -48 -16 -75 -12 -33 5 19 8 14 9 -21 5 -82 -10 -182 43
-215 113 -13 27 -19 32 -26 22 -6 -10 -8 -7 -7 11 1 14 1 40 0 59 -2 34 -2 34
-21 15 -12 -12 -15 -23 -9 -31 5 -7 5 -14 -2 -18 -5 -3 -10 -1 -10 5 0 6 -4 9
-9 5 -20 -12 -19 12 1 29 15 13 19 25 14 47 -6 33 1 37 20 12 12 -16 14 -14
15 17 1 19 2 41 2 47 -1 7 3 11 7 8 5 -3 12 5 15 17 26 83 154 123 252 79 40
-19 103 -75 103 -93 0 -5 5 -6 12 -2 8 5 9 2 5 -9 -8 -22 2 -47 19 -47 8 0 14
-5 14 -11 0 -5 -4 -7 -10 -4 -17 11 -11 -42 7 -56 15 -12 16 -12 10 4 -8 20 1
67 12 67 4 0 5 -16 3 -36 -3 -23 0 -40 9 -46 11 -7 9 -8 -5 -4 -14 5 -17 2
-12 -10 3 -8 6 -28 7 -42 l1 -27 9 30 c16 53 18 76 7 69 -7 -5 -8 4 -4 27 4
19 10 54 13 78 l5 43 -51 -3 c-36 -3 -52 0 -56 9 -8 22 -6 25 9 13 11 -9 13
-6 12 20 -1 19 -8 34 -16 37 -13 3 -13 2 0 -7 8 -5 11 -13 7 -17 -4 -4 -15 0
-25 9 -10 10 -23 17 -28 17 -5 -1 2 -10 15 -21 13 -11 21 -22 17 -26 -3 -4
-16 3 -29 14 -12 11 -29 23 -37 26 -12 4 -11 6 3 6 13 1 17 10 17 41 l0 40
-45 0 c-25 0 -61 -7 -80 -14 -19 -8 -35 -11 -35 -6 0 4 6 11 13 13 6 3 -4 5
-23 5 -19 0 -27 -2 -18 -5z m108 -18 c0 -10 -10 -15 -32 -15 l-33 1 30 14 c17
7 31 14 33 14 1 1 2 -6 2 -14z m-180 -69 c0 -3 -4 -8 -10 -11 -5 -3 -10 -1
-10 4 0 6 5 11 10 11 6 0 10 -2 10 -4z m177 -452 c-3 -3 -12 -4 -19 -1 -8 3
-5 6 6 6 11 1 17 -2 13 -5z"/>
<path d="M11682 15655 c0 -16 2 -22 5 -12 2 9 2 23 0 30 -3 6 -5 -1 -5 -18z"/>
<path d="M10831 15637 c-15 -39 -13 -47 4 -17 9 16 14 19 15 10 0 -32 -23 -40
-117 -40 -51 0 -93 -4 -93 -8 0 -14 202 -4 211 10 11 17 11 40 -1 58 -7 11
-11 9 -19 -13z"/>
<path d="M11210 15635 c-19 -23 -8 -26 19 -4 16 13 18 19 8 19 -8 0 -20 -7
-27 -15z"/>
<path d="M10870 15601 c0 -12 -12 -25 -30 -33 -16 -7 -30 -16 -30 -20 0 -11
12 -10 43 5 20 9 27 19 27 40 0 15 -2 27 -5 27 -3 0 -5 -9 -5 -19z"/>
<path d="M11685 15610 c-3 -5 1 -10 10 -10 9 0 13 5 10 10 -3 6 -8 10 -10 10
-2 0 -7 -4 -10 -10z"/>
<path d="M9878 15588 c162 -6 345 -6 475 0 195 8 174 9 -263 9 -474 0 -475 0
-212 -9z"/>
<path d="M9283 15580 c-104 -9 -150 -37 -190 -113 -17 -34 -15 -100 4 -139 7
-16 15 -28 16 -28 2 0 3 30 3 68 1 37 -1 51 -3 32 -7 -54 -18 -55 -18 -2 l0
48 53 -4 52 -4 0 41 c0 34 -3 41 -20 41 -42 0 -18 15 27 17 32 1 42 -1 32 -8
-12 -7 -12 -9 1 -9 8 0 21 4 29 9 18 12 -39 25 -71 17 -15 -4 -13 -1 7 9 36
17 61 19 70 5 3 -5 12 -10 18 -10 7 0 6 4 -3 11 -11 8 4 9 55 5 42 -4 65 -3
56 3 -8 5 28 8 93 7 58 0 106 -4 106 -8 0 -13 -56 -18 -115 -9 -39 6 -62 5
-66 -2 -4 -5 -23 -7 -43 -4 -22 3 -34 2 -31 -4 4 -5 -8 -9 -26 -9 -18 0 -30
-3 -26 -6 10 -10 71 -9 87 1 8 5 55 9 105 10 92 1 125 -3 107 -14 -6 -3 228
-7 519 -7 291 -1 529 1 529 5 0 4 -217 7 -482 7 -507 -1 -558 0 -558 15 0 6
33 7 80 3 54 -5 80 -3 80 4 0 19 -335 35 -477 22z"/>
<path d="M11773 15563 c0 -10 -3 -33 -6 -52 -4 -20 0 -42 8 -55 12 -18 12 -27
0 -61 -18 -51 -19 -105 -1 -130 17 -25 26 -74 15 -81 -5 -3 -10 7 -10 23 -1
18 -3 22 -6 10 -3 -10 -2 -30 2 -44 9 -35 25 -17 29 33 2 21 6 48 11 59 l8 20
-16 -20 c-15 -18 -16 -18 -17 -2 0 9 5 17 10 17 6 0 10 25 9 58 0 41 -3 51 -9
37 -5 -11 -9 -37 -9 -57 -1 -21 -5 -38 -11 -38 -16 0 -12 68 6 106 15 31 15
38 1 81 -9 27 -12 54 -8 67 6 15 10 6 15 -38 5 -34 11 -54 16 -47 8 14 9 5 10
-129 0 -89 -2 -112 -15 -169 l-8 -34 -20 24 c-17 20 -19 20 -12 4 15 -40 18
-67 5 -75 -8 -5 -9 -10 -2 -14 13 -8 50 87 64 163 15 85 0 268 -25 283 -6 4
-9 10 -5 13 8 8 -11 65 -21 65 -4 0 -7 -8 -8 -17z"/>
<path d="M9885 15559 c49 -7 379 -11 360 -4 -5 2 -100 5 -210 7 -110 2 -177 1
-150 -3z"/>
<path d="M10338 15563 c12 -2 32 -2 45 0 12 2 2 4 -23 4 -25 0 -35 -2 -22 -4z"/>
<path d="M10480 15560 c0 -5 18 -10 40 -10 22 0 40 5 40 10 0 6 -18 10 -40 10
-22 0 -40 -4 -40 -10z"/>
<path d="M10680 15560 c-41 -6 -42 -7 -10 -8 19 0 58 3 85 8 47 7 48 7 10 7
-22 0 -60 -3 -85 -7z"/>
<path d="M10747 15528 c3 -13 7 -38 10 -55 5 -33 5 -33 64 -33 l59 0 0 40 c0
22 -3 41 -7 41 -5 1 -21 2 -37 3 -16 1 -31 7 -34 14 -2 7 -17 12 -32 12 -25 0
-28 -3 -23 -22z m53 -40 c0 -46 -11 -42 -28 10 -10 29 -9 32 9 32 16 0 19 -7
19 -42z"/>
<path d="M10865 15540 c-3 -5 -1 -10 4 -10 6 0 11 5 11 10 0 6 -2 10 -4 10 -3
0 -8 -4 -11 -10z"/>
<path d="M9420 15529 c-21 -7 -18 -8 13 -5 21 2 41 7 44 10 9 9 -27 6 -57 -5z"/>
<path d="M10660 15536 c0 -9 39 -13 51 -5 10 6 4 9 -18 9 -18 0 -33 -2 -33 -4z"/>
<path d="M10722 15465 c0 -16 2 -22 5 -12 2 9 2 23 0 30 -3 6 -5 -1 -5 -18z"/>
<path d="M11761 15424 c0 -11 3 -14 6 -6 3 7 2 16 -1 19 -3 4 -6 -2 -5 -13z"/>
<path d="M11042 15400 c0 -14 2 -19 5 -12 2 6 2 18 0 25 -3 6 -5 1 -5 -13z"/>
<path d="M10755 15350 c3 -5 8 -10 11 -10 2 0 4 5 4 10 0 6 -5 10 -11 10 -5 0
-7 -4 -4 -10z"/>
<path d="M10800 15339 c0 -11 5 -17 10 -14 6 3 10 13 10 21 0 8 -4 14 -10 14
-5 0 -10 -9 -10 -21z"/>
<path d="M10850 15345 c0 -8 2 -15 4 -15 2 0 6 7 10 15 3 8 1 15 -4 15 -6 0
-10 -7 -10 -15z"/>
<path d="M11530 15337 c0 -14 -3 -34 -7 -44 -6 -15 -4 -16 9 -5 13 10 17 10
21 0 3 -7 6 0 6 15 1 16 -6 35 -14 43 -13 14 -15 13 -15 -9z"/>
<path d="M10760 15305 c0 -9 5 -15 11 -13 6 2 11 8 11 13 0 5 -5 11 -11 13 -6
2 -11 -4 -11 -13z"/>
<path d="M10827 15303 c-11 -10 -7 -64 7 -102 10 -27 14 -31 19 -18 3 9 2 17
-3 17 -6 0 -9 12 -9 28 2 23 2 24 6 5 2 -13 9 -23 15 -23 6 0 8 -9 5 -20 -3
-11 -2 -20 3 -20 4 0 7 26 7 58 0 40 -3 50 -8 32 -7 -23 -7 -24 -8 -3 -1 15
-6 21 -15 17 -11 -4 -13 0 -9 15 5 21 2 26 -10 14z"/>
<path d="M10720 15294 c0 -11 -85 -34 -127 -34 -45 0 -15 -13 34 -15 33 -2 51
2 59 13 6 9 26 15 45 15 19 -1 27 2 19 5 -8 3 -18 10 -22 16 -5 8 -8 8 -8 0z"/>
<path d="M9140 15270 c0 -5 5 -10 11 -10 5 0 7 5 4 10 -3 6 -8 10 -11 10 -2 0
-4 -4 -4 -10z"/>
<path d="M9354 15272 c5 -8 -4 -12 -30 -12 -21 0 -35 -3 -32 -6 3 -3 61 -7
129 -8 81 -3 105 -1 69 4 -47 6 -49 7 -17 8 49 3 48 18 -2 17 -21 0 -37 -4
-34 -9 3 -5 -8 -7 -26 -4 -17 2 -31 1 -31 -4 0 -4 -5 -8 -11 -8 -5 0 -8 4 -4
9 3 5 0 13 -6 17 -8 4 -9 3 -5 -4z"/>
<path d="M9568 15273 c7 -3 16 -2 19 1 4 3 -2 6 -13 5 -11 0 -14 -3 -6 -6z"/>
<path d="M9600 15268 c0 -4 -7 -8 -16 -8 -8 0 -12 -5 -8 -11 3 -6 16 -8 28 -4
11 3 204 6 429 6 353 -1 407 1 407 14 0 8 -7 15 -15 15 -8 0 -15 -4 -15 -10 0
-5 -8 -10 -17 -10 -15 0 -16 2 -3 10 10 6 2 9 -28 7 -23 0 -42 -5 -42 -10 0
-10 -396 -4 -430 7 -19 6 -21 5 -10 -3 12 -9 9 -11 -15 -11 -16 0 -25 4 -19 8
7 4 -46 7 -117 8 -71 0 -129 -4 -129 -8z"/>
<path d="M10583 15273 c9 -2 23 -2 30 0 6 3 -1 5 -18 5 -16 0 -22 -2 -12 -5z"/>
<path d="M10454 15259 c-3 -5 21 -9 52 -9 32 0 55 2 53 4 -10 8 -100 13 -105
5z"/>
<path d="M10776 15255 c-3 -9 0 -15 9 -15 8 0 15 7 15 15 0 8 -4 15 -9 15 -5
0 -11 -7 -15 -15z"/>
<path d="M11502 15244 c-7 -14 -8 -23 -2 -19 5 3 10 1 10 -4 0 -6 -8 -11 -17
-11 -10 -1 -31 -12 -48 -26 -29 -25 -29 -25 -5 -19 14 4 30 14 37 22 11 14 14
12 23 -13 9 -24 8 -31 -7 -42 -17 -13 -17 -14 2 -10 18 3 20 12 22 76 1 39 1
72 -1 72 -2 0 -8 -12 -14 -26z"/>
<path d="M9183 15249 c9 -5 43 -12 75 -13 31 -2 49 -2 40 1 -10 2 -18 9 -18
14 0 6 -7 6 -19 -1 -13 -7 -28 -7 -46 0 -34 13 -55 12 -32 -1z"/>
<path d="M10710 15250 c-12 -8 -12 -10 5 -10 11 0 27 5 35 10 12 8 12 10 -5
10 -11 0 -27 -5 -35 -10z"/>
<path d="M10857 15142 c11 -31 81 -137 105 -159 13 -12 32 -32 43 -44 41 -45
195 -132 195 -110 0 4 19 12 43 16 37 6 39 8 19 16 -12 4 -46 11 -75 14 -81 8
-94 10 -109 22 -7 5 -21 13 -30 16 -10 4 -18 11 -18 18 0 6 15 2 36 -10 41
-24 39 -24 48 6 5 16 2 23 -14 28 -12 4 -24 4 -27 1 -4 -3 1 -6 10 -6 10 0 17
-4 17 -10 0 -11 -6 -12 -37 -4 -13 4 -21 10 -18 14 3 5 1 11 -5 15 -5 3 -10
15 -10 26 0 10 -4 19 -10 19 -5 0 -10 5 -10 11 0 6 7 9 15 5 8 -3 15 -1 15 5
0 6 -13 7 -33 4 -44 -8 -70 15 -61 53 l6 27 -21 -30 c-21 -30 -29 -19 -11 14
8 16 5 18 -18 17 -20 -1 -26 4 -24 15 1 9 -4 19 -12 22 -11 4 -13 1 -9 -11z
m53 -42 c0 -5 -4 -10 -10 -10 -5 0 -10 5 -10 10 0 6 5 10 10 10 6 0 10 -4 10
-10z m40 -70 c11 -11 28 -20 39 -20 13 0 20 -10 25 -31 4 -20 10 -28 17 -23 8
4 9 3 5 -4 -12 -19 -26 -14 -36 14 -6 14 -18 28 -28 31 -9 2 -25 15 -35 29
-22 29 -15 32 13 4z m249 -168 c24 -1 46 -4 50 -8 3 -3 -9 -5 -26 -2 -18 2
-34 1 -35 -4 -2 -5 -20 -2 -41 7 -40 16 -52 30 -14 16 12 -5 42 -9 66 -9z"/>
<path d="M11690 15030 c0 -3 4 -11 8 -18 7 -10 13 -8 26 7 17 18 16 19 -8 17
-14 0 -26 -3 -26 -6z"/>
<path d="M11733 15010 c-13 -15 -23 -34 -23 -40 0 -7 -7 -10 -14 -7 -9 4 -13
1 -10 -6 2 -8 -8 -13 -28 -14 -22 -2 -28 0 -19 6 10 7 7 9 -10 8 -19 -2 -25
-7 -24 -26 0 -23 25 -45 25 -23 0 6 -6 13 -12 16 -15 7 29 -4 51 -12 10 -4 13
-1 8 12 -4 9 -3 15 2 12 9 -6 47 33 76 78 23 35 6 32 -22 -4z"/>
<path d="M14228 14920 c-56 -33 -43 -228 22 -320 11 -16 59 -50 106 -75 139
-76 264 -165 345 -245 86 -84 120 -132 155 -217 l24 -58 -6 90 c-17 272 -34
346 -101 443 -77 112 -272 266 -450 356 -40 20 -74 36 -75 36 -2 0 -11 -5 -20
-10z"/>
<path d="M11632 14897 c-6 -7 -23 -14 -38 -15 -35 -3 -45 -12 -13 -12 19 0 21
-2 9 -10 -8 -5 -10 -10 -5 -10 14 1 82 59 69 60 -6 0 -16 -6 -22 -13z"/>
<path d="M11482 14870 c-48 -11 -54 -23 -7 -15 43 8 83 25 55 24 -8 -1 -30 -5
-48 -9z"/>
<path d="M11500 14850 l-25 -8 28 -1 c16 -1 26 -5 22 -11 -4 -6 4 -5 19 1 47
22 12 37 -44 19z"/>
<path d="M11235 14830 l-30 -7 29 -12 c16 -6 37 -10 45 -8 13 4 13 5 -1 6 -21
1 -24 17 -5 24 17 8 -3 6 -38 -3z"/>
<path d="M11440 14829 c0 -5 6 -10 13 -10 6 -1 -10 -7 -38 -14 -62 -16 -35
-19 35 -4 27 6 48 14 45 19 -7 11 -55 19 -55 9z"/>
<path d="M11313 14793 c9 -2 25 -2 35 0 9 3 1 5 -18 5 -19 0 -27 -2 -17 -5z"/>
<path d="M10928 14163 c18 -2 45 -2 60 0 15 2 0 4 -33 4 -33 0 -45 -2 -27 -4z"/>
<path d="M10825 14123 c-19 -20 -35 -44 -35 -54 0 -10 -4 -21 -10 -24 -5 -3
-9 -22 -9 -43 1 -51 18 -104 31 -96 6 4 9 1 6 -7 -8 -22 54 -75 97 -83 25 -5
41 -4 43 3 2 7 13 6 31 -4 16 -8 44 -13 64 -12 42 3 62 17 24 17 -15 0 -27 6
-27 13 0 9 -3 8 -9 -2 -5 -8 -14 -10 -22 -5 -8 4 -38 8 -69 9 -47 0 -56 3 -66
23 -8 15 -14 20 -19 12 -5 -8 -10 -8 -21 1 -11 9 -12 15 -3 25 8 10 15 11 24
4 9 -7 14 -7 18 3 3 9 -5 13 -32 12 -30 0 -37 4 -39 23 -2 12 -8 20 -13 17 -5
-4 -9 4 -9 17 0 18 2 20 10 8 7 -12 10 -8 10 15 0 23 -3 27 -10 15 -8 -12 -10
-11 -10 8 0 12 5 22 10 22 6 0 10 8 10 18 0 9 5 24 10 32 7 12 12 12 22 2 15
-15 32 -16 22 0 -5 7 -2 9 7 6 11 -4 14 3 15 28 0 19 -3 34 -7 34 -5 0 -24
-16 -44 -37z m30 -3 c-10 -11 -21 -17 -24 -14 -3 3 3 12 13 20 28 20 32 17 11
-6z m20 -280 c3 -6 -1 -7 -9 -4 -18 7 -21 14 -7 14 6 0 13 -4 16 -10z"/>
<path d="M11103 14153 c37 -2 67 -8 67 -13 0 -6 10 -10 23 -10 23 0 73 -29 51
-30 -6 0 -14 3 -18 8 -9 8 -24 10 -121 16 -67 4 -67 4 -10 -2 34 -4 73 -15 88
-25 21 -13 25 -14 21 -2 -5 12 -2 12 25 -1 17 -9 37 -13 44 -11 7 3 4 6 -6 6
-10 1 -16 5 -13 10 3 4 -2 15 -12 23 -28 25 -82 38 -146 36 l-61 -2 68 -3z"/>
<path d="M11543 14103 c-67 -37 -97 -110 -82 -202 18 -114 56 -134 314 -161
110 -11 293 -34 406 -50 260 -38 288 -38 329 -4 47 40 64 80 64 154 0 104 -41
159 -133 179 -131 28 -720 101 -816 101 -29 0 -64 -7 -82 -17z"/>
<path d="M11063 14093 c15 -2 39 -2 55 0 15 2 2 4 -28 4 -30 0 -43 -2 -27 -4z"/>
<path d="M11158 14083 c7 -3 16 -2 19 1 4 3 -2 6 -13 5 -11 0 -14 -3 -6 -6z"/>
<path d="M11286 13999 c3 -73 2 -77 -19 -83 -12 -3 -33 -3 -45 1 -24 6 -28 -9
-16 -54 7 -24 24 -32 24 -10 1 21 36 61 44 49 4 -6 -2 -17 -14 -24 -11 -7 -20
-18 -20 -25 0 -7 -10 -17 -21 -24 -12 -6 -19 -7 -16 -1 4 5 -7 9 -23 8 -33 -1
-28 -11 10 -19 26 -6 70 21 70 42 0 6 4 11 9 11 10 0 27 41 36 85 3 17 -1 50
-9 75 l-14 45 4 -76z m-56 -104 c0 -8 -4 -15 -10 -15 -5 0 -10 7 -10 15 0 8 5
15 10 15 6 0 10 -7 10 -15z"/>
<path d="M12842 13910 c-93 -57 -98 -265 -8 -324 14 -9 56 -23 93 -31 211 -44
464 -111 661 -174 115 -37 313 -111 328 -123 7 -5 13 -62 17 -146 5 -145 21
-211 71 -296 93 -158 263 -113 372 97 l40 77 71 -59 c39 -33 87 -83 108 -110
20 -28 41 -51 46 -51 14 0 48 75 64 142 8 35 15 95 15 134 0 62 -3 76 -28 110
-34 46 -178 184 -192 184 -6 0 -10 48 -10 123 0 205 -39 330 -127 407 -40 35
-52 40 -93 40 -86 0 -167 -74 -240 -220 -18 -36 -34 -66 -35 -68 -1 -1 -36 10
-76 26 -209 83 -522 177 -824 247 -173 40 -208 42 -253 15z m1461 -398 c69
-76 59 -276 -19 -380 -35 -46 -43 -52 -76 -52 -35 0 -65 42 -80 115 -19 96 18
253 74 312 26 28 78 31 101 5z m184 -244 c-3 -8 -6 -5 -6 6 -1 11 2 17 5 13 3
-3 4 -12 1 -19z"/>
<path d="M11088 13833 c7 -3 16 -2 19 1 4 3 -2 6 -13 5 -11 0 -14 -3 -6 -6z"/>
<path d="M11111 13811 c-9 -6 -5 -8 13 -8 14 0 26 3 26 8 0 11 -21 11 -39 0z"/>
<path d="M11168 13803 c7 -3 16 -2 19 1 4 3 -2 6 -13 5 -11 0 -14 -3 -6 -6z"/>
<path d="M11310 13143 c-40 -8 -119 -42 -157 -68 -88 -59 -201 -198 -219 -269
l-6 -27 -222 8 c-121 4 -435 8 -696 7 -439 -1 -478 -2 -510 -19 -73 -38 -101
-102 -82 -186 15 -62 43 -104 85 -126 28 -14 65 -15 332 -10 239 6 718 -1
1012 -15 l41 -2 13 -60 c48 -228 240 -382 429 -346 134 25 257 113 345 245 55
82 59 85 89 80 17 -3 127 -19 245 -35 118 -17 233 -35 255 -40 81 -19 122 -13
162 22 69 61 104 182 71 247 -6 14 -26 33 -42 42 -27 16 -261 56 -569 98 -44
6 -81 12 -82 14 -2 1 -8 33 -14 71 -39 247 -253 411 -480 369z m146 -384 c57
-52 80 -159 52 -240 -17 -50 -67 -116 -105 -139 -66 -39 -160 -21 -202 39 -73
102 -34 280 75 348 53 33 141 29 180 -8z"/>
<path d="M14766 12918 c-42 -146 -58 -226 -62 -308 -2 -52 -2 -90 1 -85 16 33
85 336 85 372 0 46 -13 57 -24 21z"/>
<path d="M8990 12750 c0 -6 -15 -8 -37 -5 -21 3 -94 -1 -163 -8 l-125 -13 155
2 c85 1 167 5 182 9 15 4 36 2 48 -5 15 -8 20 -8 16 -1 -4 6 0 11 9 11 9 0 13
-4 10 -10 -3 -5 1 -10 9 -10 22 0 9 27 -17 34 -35 9 -87 7 -87 -4z m-37 -17
c-7 -2 -21 -2 -30 0 -10 3 -4 5 12 5 17 0 24 -2 18 -5z"/>
<path d="M9125 12700 c1 -16 7 -36 14 -43 6 -8 11 -19 10 -23 -5 -30 3 -94 12
-94 7 0 8 11 4 29 -3 16 -2 32 3 35 18 11 23 -27 10 -76 l-12 -49 -17 43 -17
43 -7 -37 c-4 -20 -5 -44 -2 -55 3 -10 6 -3 7 17 l2 35 9 -30 c5 -17 5 -33 -1
-39 -10 -10 -44 0 -36 12 3 5 -11 8 -29 8 -40 -1 -49 -16 -10 -16 14 0 25 -4
25 -10 0 -11 30 -13 55 -4 24 10 55 88 55 139 0 37 -3 42 -19 38 -14 -3 -20 2
-24 24 -6 34 1 46 10 15 3 -12 9 -22 14 -22 13 0 11 7 -13 45 -30 45 -45 51
-43 15z m25 -10 c0 -5 -4 -10 -10 -10 -5 0 -10 5 -10 10 0 6 5 10 10 10 6 0
10 -4 10 -10z"/>
<path d="M8580 12710 c0 -5 11 -10 24 -10 14 0 28 5 31 10 4 6 -7 10 -24 10
-17 0 -31 -4 -31 -10z"/>
<path d="M8440 12699 c-36 -5 -102 -14 -147 -20 -137 -18 -133 -34 9 -35 68 0
113 1 100 4 -20 3 -21 5 -6 20 12 12 38 17 88 19 39 1 72 7 74 12 4 12 -25 12
-118 0z m-67 -30 c-5 -5 -32 -13 -59 -15 -53 -6 -55 4 -2 16 51 12 74 12 61
-1z"/>
<path d="M8555 12680 c-8 -13 5 -13 25 0 13 8 13 10 -2 10 -9 0 -20 -4 -23
-10z"/>
<path d="M8440 12670 l-25 -8 25 0 c14 -1 43 3 65 7 l40 9 -40 0 c-22 0 -51
-4 -65 -8z"/>
<path d="M8613 12668 c1 -10 -13 -12 -55 -10 -31 2 -59 -1 -62 -6 -7 -12 116
-12 132 0 16 14 15 28 -3 28 -8 0 -14 -6 -12 -12z"/>
<path d="M8458 12643 c7 -3 16 -2 19 1 4 3 -2 6 -13 5 -11 0 -14 -3 -6 -6z"/>
<path d="M8145 12610 c-3 -5 -1 -10 4 -10 6 0 11 5 11 10 0 6 -2 10 -4 10 -3
0 -8 -4 -11 -10z"/>
<path d="M9120 12594 c0 -14 4 -23 9 -20 5 3 7 15 4 26 -7 28 -13 25 -13 -6z"/>
<path d="M8132 12578 c2 -5 8 -9 13 -9 5 0 11 4 13 9 1 5 -4 9 -13 9 -9 0 -14
-4 -13 -9z"/>
<path d="M8128 12544 c-10 -16 11 -86 24 -78 6 4 8 -1 3 -15 -4 -14 -1 -23 9
-27 9 -3 16 -12 16 -19 0 -27 34 -43 75 -35 37 7 38 8 10 10 -16 1 -35 3 -41
4 -18 2 -68 66 -52 66 19 0 38 -21 38 -42 0 -10 5 -18 10 -18 29 0 -17 84 -47
86 -7 1 -17 2 -22 3 -6 0 -11 18 -13 39 -2 20 -6 32 -10 26z"/>
<path d="M8152 12520 c0 -19 2 -27 5 -17 2 9 2 25 0 35 -3 9 -5 1 -5 -18z"/>
<path d="M12812 12481 c-84 -53 -127 -216 -74 -281 13 -16 61 -34 172 -65 85
-23 189 -53 231 -65 68 -21 80 -22 109 -10 61 25 119 108 134 192 9 47 -17
111 -50 126 -52 24 -382 114 -434 118 -44 4 -62 1 -88 -15z"/>
<path d="M8221 12463 c7 -10 15 -20 16 -22 2 -2 3 3 3 11 0 9 -7 19 -16 22
-15 6 -15 4 -3 -11z"/>
<path d="M8865 12469 c-32 -4 -19 -5 35 -3 56 2 80 0 70 -6 -8 -5 -32 -10 -53
-10 -22 0 -36 -4 -32 -10 3 -5 19 -7 34 -4 16 4 36 2 45 -3 10 -5 -1 -8 -34
-8 -26 0 -52 3 -56 8 -4 4 -22 7 -41 7 -27 0 -33 -4 -33 -21 0 -21 3 -22 68
-14 37 4 84 7 105 6 20 -1 37 3 37 9 0 6 17 8 43 5 35 -3 37 -3 12 4 -28 8
-29 9 -5 10 17 2 7 8 -35 21 -60 20 -69 20 -160 9z m148 -26 c-7 -2 -21 -2
-30 0 -10 3 -4 5 12 5 17 0 24 -2 18 -5z"/>
<path d="M8248 12393 c6 -2 18 -2 25 0 6 3 1 5 -13 5 -14 0 -19 -2 -12 -5z"/>
<path d="M8396 12389 c6 -20 -41 -36 -60 -20 -7 6 -17 6 -26 1 -8 -6 -28 -10
-45 -10 -27 -1 -28 -2 -9 -10 22 -9 45 -8 144 6 30 4 63 7 72 8 9 0 15 3 13 6
-2 3 15 6 38 6 73 1 97 4 97 12 0 14 -95 11 -148 -4 -50 -15 -54 -15 -68 2
-11 15 -13 15 -8 3z m141 -5 c-3 -3 -12 -4 -19 -1 -8 3 -5 6 6 6 11 1 17 -2
13 -5z"/>
<path d="M8438 12393 c7 -3 16 -2 19 1 4 3 -2 6 -13 5 -11 0 -14 -3 -6 -6z"/>
<path d="M8651 12391 c-9 -6 9 -7 50 -4 35 3 66 7 68 9 10 9 -105 3 -118 -5z"/>
<path d="M8348 12383 c6 -2 18 -2 25 0 6 3 1 5 -13 5 -14 0 -19 -2 -12 -5z"/>
<path d="M13595 12244 c-81 -41 -151 -216 -115 -284 5 -10 72 -51 147 -90 76
-39 173 -96 215 -126 l77 -54 -34 -80 c-77 -181 -106 -328 -72 -375 21 -28 77
-12 140 38 143 117 347 442 422 674 51 158 50 286 -2 299 -52 13 -127 -42
-219 -161 -31 -41 -60 -75 -64 -75 -4 0 -27 15 -51 33 -97 74 -363 217 -401
217 -7 0 -26 -7 -43 -16z m646 -340 c33 -40 -64 -254 -157 -345 -92 -90 -100
-2 -15 167 47 91 126 194 150 194 5 0 15 -7 22 -16z"/>
<path d="M9620 11860 c-11 -7 -8 -10 15 -9 17 0 39 4 50 9 16 7 14 9 -15 9
-19 0 -42 -4 -50 -9z"/>
<path d="M9545 11848 c-44 -16 -86 -48 -78 -60 4 -7 0 -9 -9 -5 -10 3 -24 -3
-34 -14 -18 -20 -17 -20 6 -11 14 5 58 8 98 6 l72 -4 0 40 c0 31 -4 40 -17 41
-15 0 -15 2 2 9 29 13 -4 11 -40 -2z m-34 -48 c9 13 10 12 5 -2 -3 -10 -1 -18
4 -18 6 0 10 5 10 10 0 6 14 10 30 10 32 0 43 -19 13 -22 -61 -5 -103 -4 -91
3 11 7 11 9 0 9 -7 0 -10 5 -6 11 4 8 9 7 15 -2 8 -12 11 -11 20 1z"/>
<path d="M9720 11850 c19 -13 30 -13 30 0 0 6 -10 10 -22 10 -19 0 -20 -2 -8
-10z"/>
<path d="M9780 11830 c14 -11 32 -20 41 -20 9 0 24 -9 34 -20 23 -25 15 -25
-31 0 -20 12 -41 19 -48 17 -6 -3 2 -10 19 -16 19 -8 25 -15 17 -20 -6 -4 11
-7 38 -6 46 0 48 1 32 17 -19 18 -106 68 -119 68 -4 0 3 -9 17 -20z"/>
<path d="M9430 11741 c0 -7 -7 -10 -18 -7 -12 4 -23 -2 -34 -22 l-16 -27 35 0
c21 0 37 5 39 13 1 7 0 8 -3 2 -2 -5 -9 -10 -15 -10 -6 0 -3 12 7 26 9 14 14
28 11 32 -3 3 -6 0 -6 -7z m-26 -36 c-4 -8 -8 -15 -10 -15 -2 0 -4 7 -4 15 0
8 4 15 10 15 5 0 7 -7 4 -15z"/>
<path d="M9928 11728 c9 -11 9 -18 3 -23 -7 -4 -7 -12 -1 -23 5 -9 14 -31 21
-48 10 -24 18 -31 39 -30 18 1 26 6 23 14 -3 6 -10 12 -16 12 -6 0 -7 3 -4 6
12 12 -25 62 -41 56 -11 -4 -14 -1 -9 11 3 9 -1 21 -11 29 -15 12 -16 11 -4
-4z m51 -93 c1 -5 -6 -2 -15 7 -10 9 -13 21 -8 29 5 9 9 8 15 -7 4 -10 8 -23
8 -29z"/>
<path d="M9334 11623 c-25 -65 -28 -217 -5 -240 12 -12 13 -17 3 -21 -6 -2
-12 -11 -12 -20 0 -13 3 -13 16 4 15 19 16 19 9 -1 -4 -14 -3 -17 4 -10 7 7 7
21 2 40 -5 17 -10 26 -11 20 -1 -5 -6 6 -10 25 -5 19 -5 41 0 50 6 11 10 8 15
-15 11 -50 13 -52 14 -12 1 25 -6 45 -19 59 -11 12 -20 29 -20 37 1 13 4 12
17 -4 14 -18 15 -18 9 -2 -3 11 -8 31 -11 45 -5 26 -5 26 10 -3 16 -29 15 -9
-1 29 -4 12 -4 17 3 13 5 -4 10 6 10 23 0 17 -1 30 -2 30 -1 0 -11 -21 -21
-47z"/>
<path d="M9920 11622 c0 -12 19 -26 26 -19 2 2 -2 10 -11 17 -9 8 -15 8 -15 2z"/>
<path d="M9524 11558 c14 -115 15 -124 7 -93 -5 20 -7 -2 -8 -67 0 -67 3 -95
11 -92 7 3 11 33 12 79 0 57 4 79 18 94 10 11 15 25 11 31 -3 6 -3 9 2 8 4 -2
18 4 31 13 19 14 20 18 7 22 -8 4 -15 16 -15 27 0 17 -6 20 -41 20 l-41 0 6
-42z m36 -59 c0 -6 -4 -7 -10 -4 -5 3 -10 11 -10 16 0 6 5 7 10 4 6 -3 10 -11
10 -16z"/>
<path d="M9631 11589 c11 -7 10 -9 -3 -9 -10 0 -18 -4 -18 -10 0 -13 3 -13 35
4 15 8 35 11 44 8 12 -5 10 -8 -9 -10 -14 -2 -29 -8 -35 -14 -7 -7 -1 -9 17
-4 16 4 42 0 62 -8 32 -13 35 -13 33 3 -1 13 -8 17 -26 14 -26 -3 -26 -3 2 8
29 12 36 29 11 29 -9 0 -12 -5 -8 -12 5 -8 0 -9 -17 -4 -37 11 -103 15 -88 5z"/>
<path d="M10005 11553 c1 -21 5 -39 8 -40 16 -6 17 -2 7 20 -10 20 -10 20 3 5
19 -24 26 -23 20 2 -3 11 -10 20 -15 20 -6 0 -8 7 -4 15 3 9 0 15 -8 15 -9 0
-13 -12 -11 -37z"/>
<path d="M9791 11504 c27 -29 29 -29 22 -5 -3 11 -14 22 -25 24 -19 5 -19 4 3
-19z"/>
<path d="M10030 11495 c0 -29 22 -120 32 -130 7 -7 8 2 3 25 -8 34 -12 65 -14
103 -1 20 -21 23 -21 2z"/>
<path d="M10070 11500 c0 -10 33 -12 158 -8 86 2 189 1 227 -2 l70 -7 -58 -1
c-32 -1 -56 -5 -54 -9 3 -5 37 -7 76 -5 40 2 69 8 65 13 -3 5 4 9 16 9 12 0
18 -4 15 -10 -3 -5 3 -10 14 -10 12 0 21 5 21 10 0 6 5 10 10 10 6 0 10 -7 10
-15 0 -10 9 -15 28 -14 24 0 25 1 7 9 -13 6 22 9 100 11 l120 2 -125 7 c-69 4
-254 11 -412 15 -233 7 -288 6 -288 -5z"/>
<path d="M9826 11473 c-6 -14 -5 -15 5 -6 7 7 10 15 7 18 -3 3 -9 -2 -12 -12z"/>
<path d="M10197 11483 c-96 -3 -127 -7 -124 -16 5 -17 112 -29 167 -20 39 7
32 9 -60 14 l-105 5 115 3 c63 1 138 6 165 11 57 8 70 8 -158 3z"/>
<path d="M10855 11469 c-43 -6 -39 -7 28 -5 55 2 82 -1 95 -11 15 -13 15 -14
1 -10 -15 5 -15 3 -3 -22 7 -15 15 -36 17 -47 1 -10 6 -25 11 -32 5 -8 4 -18
-2 -24 -6 -6 -14 8 -22 42 -7 28 -14 49 -17 47 -2 -3 1 -25 7 -48 22 -86 22
-86 6 -59 -16 27 -22 10 -7 -19 6 -10 6 -23 0 -32 -6 -10 -9 -10 -9 -1 0 15
-40 15 -60 -1 -8 -7 -15 -19 -15 -27 0 -8 -13 -18 -30 -21 -25 -6 -23 -7 17
-8 58 -1 98 29 128 96 30 69 27 128 -9 164 -31 31 -43 32 -136 18z m155 -72
c0 -5 -4 -5 -10 -2 -5 3 -10 14 -10 23 0 15 2 15 10 2 5 -8 10 -19 10 -23z
m-60 -152 c0 -14 -40 -43 -46 -34 -3 6 2 17 12 24 19 15 34 19 34 10z"/>
<path d="M10010 11448 c0 -16 5 -28 10 -28 13 0 13 20 0 40 -8 12 -10 9 -10
-12z"/>
<path d="M10455 11450 c-3 -5 1 -10 10 -10 9 0 13 5 10 10 -3 6 -8 10 -10 10
-2 0 -7 -4 -10 -10z"/>
<path d="M10545 11450 c-3 -5 -1 -10 4 -10 6 0 11 5 11 10 0 6 -2 10 -4 10 -3
0 -8 -4 -11 -10z"/>
<path d="M10620 11450 c0 -5 14 -10 32 -10 36 0 35 4 -4 14 -17 4 -28 2 -28
-4z"/>
<path d="M10788 11448 c23 -9 140 -10 145 0 3 4 -33 7 -79 7 -46 0 -76 -3 -66
-7z"/>
<path d="M9837 11432 c1 -8 3 -21 3 -30 1 -15 3 -14 15 2 13 17 15 17 15 3 0
-9 -5 -28 -12 -42 -9 -20 -8 -31 2 -50 7 -14 10 -28 7 -32 -4 -3 -7 2 -7 12 0
14 -3 16 -11 8 -7 -7 -12 -30 -12 -53 0 -22 -4 -43 -8 -46 -5 -3 -6 3 -2 13 4
10 -6 5 -23 -13 -16 -18 -36 -34 -44 -37 -12 -4 -11 -6 3 -6 25 -1 21 -21 -5
-22 -22 0 -22 -1 -3 -9 28 -12 37 -12 29 1 -4 8 1 9 17 5 l24 -7 -24 20 c-26
24 -24 25 16 11 l28 -10 -25 21 c-24 20 -25 21 -2 16 12 -3 20 -1 16 4 -6 10
5 12 53 9 l32 -1 -1 75 c-2 77 -17 107 -20 39 l-1 -38 -4 34 c-3 18 0 38 6 44
17 17 13 31 -4 17 -8 -7 -15 -19 -15 -28 0 -8 -3 -13 -6 -9 -8 8 18 97 27 97
4 0 10 -10 12 -22 4 -20 4 -19 6 4 1 27 -1 28 -39 25 -22 -2 -41 -1 -43 2 -2
3 -2 0 0 -7z"/>
<path d="M10323 11443 c15 -2 39 -2 55 0 15 2 2 4 -28 4 -30 0 -43 -2 -27 -4z"/>
<path d="M10728 11443 c6 -2 18 -2 25 0 6 3 1 5 -13 5 -14 0 -19 -2 -12 -5z"/>
<path d="M11263 11430 c-49 -29 -83 -89 -90 -154 -10 -101 11 -118 172 -136
340 -38 705 -109 1008 -196 77 -22 131 -33 149 -29 59 13 164 133 182 208 15
62 -14 75 -304 146 -313 75 -552 120 -868 161 -190 25 -209 25 -249 0z"/>
<path d="M10080 11400 l0 -40 40 0 40 0 0 40 0 40 -40 0 -40 0 0 -40z"/>
<path d="M10015 11387 c-4 -10 -5 -21 -1 -24 10 -10 18 4 13 24 -4 17 -4 17
-12 0z"/>
<path d="M9347 11299 c-3 -11 -1 -34 5 -50 7 -22 16 -29 36 -29 23 0 24 13 1
16 -5 1 -13 2 -19 3 -17 2 -11 29 8 34 9 2 7 3 -5 2 -19 -2 -22 2 -17 21 4 13
4 24 1 24 -2 0 -7 -9 -10 -21z"/>
<path d="M9547 11294 c-3 -4 -1 -16 5 -28 10 -19 10 -20 -5 -7 -14 11 -18 11
-23 -3 -4 -10 -2 -27 4 -39 9 -19 10 -17 6 13 -4 32 -4 33 6 10 8 -17 13 -21
19 -12 10 17 46 -23 46 -51 0 -23 61 -60 80 -49 5 3 1 9 -10 13 -55 17 -65 22
-65 30 0 13 14 11 36 -6 22 -17 44 -19 44 -5 0 6 -7 10 -15 10 -21 0 -84 58
-103 97 -10 19 -21 31 -25 27z"/>
<path d="M10011 11269 c10 -6 11 -9 2 -9 -7 0 -13 -4 -13 -9 0 -4 15 -3 34 3
40 12 38 20 -6 22 -21 1 -26 -1 -17 -7z"/>
<path d="M10268 11273 c18 -2 45 -2 60 0 15 2 0 4 -33 4 -33 0 -45 -2 -27 -4z"/>
<path d="M10443 11267 c20 -6 37 -14 37 -19 0 -4 18 -5 40 -2 32 5 40 3 40 -8
0 -13 -10 -14 -47 -10 -27 3 -49 9 -51 13 -2 5 -14 9 -26 9 -12 0 -26 4 -31 9
-6 6 -24 6 -45 1 l-35 -10 38 5 c20 2 37 0 37 -5 0 -11 -66 -16 -120 -9 l-45
6 44 1 c24 1 42 4 39 7 -2 3 -69 1 -147 -3 -123 -7 -145 -11 -157 -27 -17 -23
-19 -79 -3 -69 6 3 8 15 5 26 -11 42 15 50 161 49 75 -1 139 -4 142 -7 3 -3
-57 -4 -133 -3 -75 0 -140 -2 -144 -5 -11 -12 -13 -54 -2 -61 6 -4 10 6 10 24
0 17 3 31 8 31 252 2 471 1 482 -3 8 -3 70 -7 138 -9 l122 -4 0 44 0 44 -127
-5 c-71 -3 -144 -8 -163 -11 -26 -4 -29 -3 -10 3 19 6 9 8 -35 8 -58 0 -59 -1
-22 -10z m-23 -37 c-14 -4 -41 -8 -60 -8 l-35 1 40 7 c57 10 87 10 55 0z"/>
<path d="M10885 11269 c-11 -17 1 -21 15 -4 8 9 8 15 2 15 -6 0 -14 -5 -17
-11z"/>
<path d="M9420 11255 c0 -8 5 -15 10 -15 6 0 10 7 10 15 0 8 -4 15 -10 15 -5
0 -10 -7 -10 -15z"/>
<path d="M9410 11189 c-11 -20 -12 -20 -26 -2 -14 16 -14 16 -3 -7 18 -36 63
-104 72 -108 4 -2 7 -10 7 -18 0 -8 5 -14 10 -14 18 0 11 27 -11 41 -11 8 -21
22 -23 32 -1 10 -8 22 -15 27 -14 8 -6 50 10 50 5 0 9 5 9 10 0 17 -19 11 -30
-11z"/>
<path d="M9700 11150 c0 -5 7 -10 15 -10 8 0 15 5 15 10 0 6 -7 10 -15 10 -8
0 -15 -4 -15 -10z"/>
<path d="M10017 11146 c-4 -10 -5 -21 -2 -25 2 -5 -18 -6 -45 -3 l-50 5 0 -37
c0 -20 5 -36 10 -36 6 0 10 -5 10 -11 0 -5 -4 -8 -8 -5 -5 3 -9 -1 -9 -9 0 -8
4 -12 9 -9 12 8 10 -10 -4 -24 -9 -9 -9 -15 1 -24 10 -11 11 -9 5 6 -5 12 -4
17 3 13 5 -4 21 5 33 18 13 14 20 25 16 25 -4 0 0 7 9 16 9 9 14 23 11 31 -3
8 -2 12 3 9 13 -8 29 36 21 58 -6 18 -7 18 -13 2z m-44 -113 c3 -5 -3 -16 -13
-25 -16 -17 -17 -17 -14 5 1 12 3 23 3 25 2 5 20 1 24 -5z"/>
<path d="M9608 11128 c5 -5 16 -8 23 -6 8 3 3 7 -10 11 -17 4 -21 3 -13 -5z"/>
<path d="M9454 11105 c2 -5 15 -9 30 -8 25 2 35 -10 17 -21 -5 -3 -11 -17 -13
-31 -4 -21 3 -32 41 -64 25 -21 58 -46 73 -55 36 -23 135 -46 173 -40 46 8
125 46 118 57 -4 6 0 8 11 4 9 -4 15 -3 12 2 -6 9 -103 8 -113 -2 -3 -4 6 -7
20 -7 18 0 25 -4 21 -13 -6 -17 -97 -40 -102 -26 -2 5 -18 9 -35 9 -30 0 -30
1 -11 16 19 15 18 15 -4 11 -12 -3 -20 -1 -16 4 7 12 48 11 60 -1 7 -7 19 -7
34 -2 21 8 17 10 -26 16 -36 4 -62 2 -87 -9 -46 -19 -58 -19 -51 0 4 8 1 15
-6 15 -6 0 -9 8 -6 18 6 17 -8 26 -67 46 -14 4 -16 14 -13 50 l4 44 -34 -1
c-19 -1 -32 -6 -30 -12z m79 -99 c9 9 45 -19 50 -38 6 -22 -9 -24 -21 -2 -5 8
-19 21 -32 27 -13 7 -25 19 -27 27 -3 11 -1 11 10 -2 8 -10 16 -15 20 -12z
m342 -66 c3 -6 -1 -7 -9 -4 -18 7 -21 14 -7 14 6 0 13 -4 16 -10z m-210 -20
c8 -13 -5 -13 -25 0 -13 8 -13 10 2 10 9 0 20 -4 23 -10z"/>
<path d="M12842 11090 c-67 -27 -182 -192 -167 -239 6 -18 92 -61 124 -61 24
0 101 51 133 88 55 63 80 109 76 144 -3 28 -10 36 -48 55 -48 24 -81 27 -118
13z"/>
<path d="M9580 11025 c7 -9 15 -13 17 -11 7 7 -7 26 -19 26 -6 0 -6 -6 2 -15z"/>
<path d="M13089 10942 c-73 -47 -159 -160 -159 -210 0 -11 24 -35 63 -62 34
-24 84 -64 110 -89 l49 -45 46 24 c62 33 187 157 196 194 6 24 2 35 -26 64
-52 55 -187 152 -212 152 -12 0 -42 -13 -67 -28z"/>
<path d="M9760 10920 c-12 -8 -9 -10 12 -10 15 0 30 5 33 10 8 13 -25 13 -45
0z"/>
<path d="M13420 10659 c-46 -29 -111 -87 -163 -145 l-42 -48 0 -95 c0 -86 -3
-102 -28 -150 l-29 -54 41 33 c220 173 281 256 281 380 0 37 -5 74 -12 83 -12
16 -15 16 -48 -4z"/>
<path d="M14561 8139 c-215 -23 -398 -77 -606 -179 -441 -218 -739 -605 -847
-1100 -19 -92 -22 -134 -23 -335 0 -201 3 -244 23 -343 55 -274 183 -535 358
-731 149 -166 284 -270 485 -371 289 -146 603 -206 951 -181 269 19 453 67
673 176 141 70 245 143 355 248 93 90 93 99 -8 196 -213 207 -251 241 -270
241 -11 0 -55 -29 -98 -66 -238 -198 -467 -284 -753 -284 -403 0 -745 173
-948 479 -105 158 -156 309 -176 519 -25 275 34 528 173 739 204 310 544 483
951 483 285 0 525 -89 744 -275 53 -45 85 -65 104 -65 20 0 57 27 151 115 173
160 200 190 200 219 0 33 -114 144 -236 231 -312 223 -763 330 -1203 284z"/>
<path d="M4934 8101 c-10 -1 -27 -10 -36 -19 -17 -14 -18 -101 -18 -1559 0
-1530 0 -1543 20 -1563 19 -19 33 -20 273 -20 203 0 257 3 273 14 19 14 19 43
22 1538 1 838 0 1538 -3 1555 -3 18 -15 37 -25 43 -19 10 -461 20 -506 11z"/>
<path d="M10358 8102 c-74 -6 -68 126 -68 -1582 0 -1374 2 -1538 16 -1558 l15
-22 1153 0 c1104 0 1154 1 1169 18 15 16 17 47 17 230 0 207 0 211 -22 226
-20 14 -119 16 -868 16 -838 0 -846 0 -868 20 -22 21 -22 22 -22 419 0 373 1
399 18 414 17 16 82 17 733 17 555 0 720 3 739 13 l25 13 3 214 c3 209 2 215
-19 233 -20 16 -70 17 -744 17 -687 0 -723 1 -738 18 -15 17 -17 58 -17 390 0
359 1 373 20 392 20 20 33 20 840 20 807 0 820 0 840 20 19 19 20 33 20 223 0
160 -3 207 -14 223 -14 19 -40 19 -1103 24 -598 3 -1105 4 -1125 2z"/>
<path d="M2468 8083 c-14 -15 -209 -443 -443 -968 -74 -167 -706 -1571 -841
-1869 -52 -115 -98 -221 -101 -236 -4 -20 1 -34 16 -49 20 -20 30 -21 279 -21
236 0 260 2 275 18 9 10 79 165 156 346 77 180 147 336 157 347 17 18 42 19
790 19 l773 0 19 -25 c11 -13 82 -170 158 -347 76 -177 146 -330 156 -340 16
-16 41 -18 278 -18 247 0 261 1 280 20 11 11 20 30 20 43 0 12 -57 148 -127
302 -69 154 -181 402 -248 550 -67 149 -173 383 -235 520 -62 138 -177 392
-255 565 -78 173 -225 497 -325 720 -100 223 -189 413 -198 423 -14 15 -41 17
-292 17 -251 0 -278 -2 -292 -17z m336 -695 c13 -21 126 -279 412 -945 88
-204 103 -246 94 -267 -5 -13 -18 -30 -29 -35 -13 -7 -189 -11 -528 -11 -499
0 -510 0 -531 20 -12 12 -22 31 -22 44 0 23 492 1179 512 1203 18 22 76 16 92
-9z"/>
<path d="M7180 8080 c-19 -19 -20 -33 -20 -224 0 -186 2 -206 19 -227 l19 -24
489 -3 c482 -2 488 -2 506 -23 16 -20 17 -97 17 -1308 0 -1148 2 -1289 16
-1309 15 -22 18 -22 275 -22 246 0 260 1 279 20 20 20 20 33 20 1313 0 1233 1
1295 18 1310 16 15 72 17 506 19 l488 3 19 24 c19 23 20 38 17 234 -3 193 -4
210 -22 223 -17 12 -214 14 -1323 14 -1290 0 -1303 0 -1323 -20z"/>
<path d="M16606 8078 c-14 -20 -16 -185 -16 -1560 0 -1525 0 -1538 20 -1558
19 -19 33 -20 273 -20 241 0 254 1 275 20 l22 21 0 638 c0 605 1 639 18 654
17 16 87 17 799 17 743 0 781 -1 796 -18 15 -17 17 -77 17 -655 0 -624 0 -637
20 -657 19 -19 33 -20 275 -20 242 0 256 1 275 20 20 20 20 33 20 1560 0 1527
0 1540 -20 1560 -19 19 -33 20 -275 20 -242 0 -256 -1 -275 -20 -20 -20 -20
-33 -20 -633 0 -582 -1 -615 -18 -630 -17 -16 -87 -17 -800 -17 l-781 0 -15
22 c-14 20 -16 96 -16 630 0 595 0 608 -20 628 -19 19 -33 20 -279 20 -257 0
-260 0 -275 -22z"/>
<path d="M4656 3778 c-72 -13 -168 -60 -211 -103 -60 -61 -89 -135 -90 -230 0
-104 21 -159 84 -218 73 -68 184 -116 361 -157 81 -19 176 -64 195 -94 25 -37
30 -96 12 -138 -24 -58 -81 -82 -189 -81 -113 1 -163 24 -219 100 -47 63 -75
77 -143 70 -40 -4 -55 -11 -78 -36 -78 -88 23 -235 210 -303 48 -18 80 -22
207 -22 160 -1 211 8 298 51 172 85 241 294 156 470 -44 92 -162 159 -377 217
-219 59 -252 80 -252 163 0 79 40 116 137 129 94 12 184 -30 223 -104 6 -13
27 -30 45 -38 100 -42 207 21 191 112 -9 46 -92 133 -158 167 -100 51 -272 70
-402 45z"/>
<path d="M6121 3774 c-85 -18 -195 -71 -252 -122 -139 -124 -211 -341 -188
-565 23 -221 132 -392 301 -472 89 -42 152 -55 271 -55 231 0 416 107 507 294
57 117 74 190 73 326 -1 200 -53 341 -167 455 -130 130 -340 184 -545 139z
m217 -207 c65 -18 123 -57 157 -109 85 -129 98 -365 28 -521 -101 -224 -423
-224 -529 0 -95 201 -47 507 92 593 77 48 160 60 252 37z"/>
<path d="M12510 3774 c-212 -45 -378 -217 -425 -439 -8 -39 -15 -113 -15 -165
0 -306 155 -529 415 -595 76 -19 231 -19 314 0 164 39 301 152 370 307 45 100
56 161 55 303 0 200 -41 317 -150 434 -131 142 -349 202 -564 155z m268 -224
c62 -28 98 -63 132 -130 36 -72 50 -141 50 -248 -1 -264 -125 -414 -330 -400
-124 9 -212 78 -261 205 -27 71 -38 249 -20 333 22 108 81 198 153 236 74 38
194 40 276 4z"/>
<path d="M15515 3780 c-95 -20 -159 -53 -216 -109 -70 -70 -94 -133 -93 -241
2 -177 107 -269 396 -346 155 -41 215 -69 246 -114 27 -41 29 -103 3 -146 -29
-47 -82 -68 -177 -68 -107 0 -181 33 -220 100 -31 53 -67 74 -127 74 -60 0
-109 -33 -121 -82 -13 -50 12 -104 74 -162 94 -88 208 -126 380 -126 180 0
308 46 393 140 60 66 82 131 81 235 -2 193 -107 288 -409 370 -208 56 -255 86
-255 165 0 81 62 125 175 124 95 -1 119 -14 196 -106 51 -61 146 -64 201 -6
38 40 37 81 -3 142 -39 59 -114 110 -199 137 -73 23 -257 34 -325 19z"/>
<path d="M7339 3741 l-29 -29 0 -551 0 -550 27 -21 c26 -21 33 -21 382 -18
393 3 387 2 417 68 15 30 15 39 3 75 -24 70 -47 75 -310 75 -206 0 -227 2
-242 18 -15 17 -17 62 -17 446 0 359 -2 432 -15 456 -24 46 -52 60 -123 60
-57 0 -67 -3 -93 -29z"/>
<path d="M8583 3760 c-54 -22 -54 -25 -51 -452 3 -372 5 -396 25 -457 44 -129
142 -228 267 -267 76 -25 283 -30 369 -10 133 31 222 94 275 194 60 113 64
142 69 531 6 382 3 414 -44 450 -20 16 -40 21 -90 21 -58 0 -68 -3 -94 -29
l-29 -29 0 -324 c0 -178 -5 -357 -10 -397 -13 -100 -44 -158 -105 -196 -42
-26 -57 -30 -124 -30 -124 0 -194 48 -233 159 -15 45 -17 94 -18 404 0 385 -3
406 -56 431 -29 13 -119 14 -151 1z"/>
<path d="M10004 3759 c-29 -14 -54 -61 -54 -99 0 -23 10 -42 34 -66 l34 -34
125 0 c108 0 128 -3 148 -19 l24 -19 5 -446 5 -446 28 -27 c24 -25 35 -28 92
-28 57 0 68 3 92 28 l28 27 5 446 5 446 24 19 c20 16 40 19 140 19 132 0 158
9 183 60 22 45 10 99 -29 130 -25 19 -37 20 -447 19 -261 0 -429 -4 -442 -10z"/>
<path d="M11391 3756 c-51 -28 -50 -24 -51 -584 0 -476 2 -525 17 -549 45 -69
181 -69 223 0 19 31 20 55 20 545 0 559 -1 565 -56 591 -34 15 -123 13 -153
-3z"/>
<path d="M13720 3750 c-20 -20 -20 -33 -20 -564 l0 -544 28 -30 c58 -62 168
-47 200 27 13 31 14 93 9 446 -5 367 -4 406 9 376 20 -45 230 -438 362 -680
80 -144 113 -196 132 -203 14 -5 76 -8 137 -6 91 3 116 7 130 21 17 17 18 54
18 568 l0 551 -33 29 c-27 24 -41 29 -83 29 -45 0 -55 -4 -86 -35 l-35 -35 4
-398 4 -397 -69 135 c-39 74 -118 221 -177 325 -58 105 -126 226 -150 270 -24
44 -52 92 -62 108 l-19 27 -140 0 c-126 0 -141 -2 -159 -20z"/>
</g>
</svg>
